<svg width="512" height="512" viewBox="0 0 512 512" fill="none" xmlns="http://www.w3.org/2000/svg">
<style type="text/css">
	.st0{fill:#636363;}
	.st1{fill:#0F0F0F;}
	.st2{fill:#246BFD;}
	.st3{fill:#FFA300;}
	.st5{fill:#FFFFFF;}
    @media (prefers-color-scheme: dark) {
        .st0 { fill: #B7B7B7; }
        .st1 { fill: #F5F5F5; }
        .st2 { fill: #44C9BD; }
    }
</style>
<g>
	<path class="st0" d="M382.1,440.5H416l1-114.4v-1c-4.8,33.9-15.8,49.8-34.9,70.4V440.5z"/>
	<path class="st0" d="M416,138.3c-3.4,6.7-10.8,11.3-19.4,11.3c-8.6,0-16-4.6-19.4-11.3V239c9.7-29.1,19.7-55.3,38.8-74.4V138.3z"/>
	<path class="st1" d="M380.9,282.8c-1.5,67.4-56.8,121.6-124.8,121.6c-68.9,0-124.8-55.7-124.8-124.4c0-1.1,0-2.1,0-3.2V120.5h-0.1
		H96V280c0,88.1,71.7,159.5,160,159.5c88.4,0,160-71.4,160-159.5c0-0.6,0-1.1,0-1.7c0.1-4.8,0.4-9.5,1-14.1v-85.1
		c-22.6,27.5-36.1,62.6-36.1,100.9C380.9,280.9,380.9,281.9,380.9,282.8z"/>
	
		<ellipse transform="matrix(0.9732 -0.2298 0.2298 0.9732 -17.0758 94.3436)" class="st2" cx="396.6" cy="120.5" rx="19.4" ry="19.4"/>
</g>
<circle class="st3" cx="135.5" cy="401.1" r="89.5"/>
<path class="st5" d="M106.5,442.6v-88.3h30.4c6.9,0,12.1,0.4,15.7,1.3c5.1,1.2,9.4,3.3,13,6.3c4.7,3.9,8.1,9,10.5,15.1
	c2.3,6.1,3.5,13.1,3.5,21c0,6.7-0.8,12.6-2.3,17.8c-1.6,5.2-3.6,9.5-6,12.9c-2.4,3.4-5.1,6.1-8,8c-2.9,1.9-6.4,3.4-10.5,4.4
	c-4.1,1-8.8,1.5-14.2,1.5H106.5z M118.2,432.2h18.9c5.8,0,10.4-0.5,13.7-1.6c3.3-1.1,6-2.6,7.9-4.6c2.8-2.8,4.9-6.5,6.5-11.2
	c1.5-4.7,2.3-10.3,2.3-17c0-9.2-1.5-16.3-4.5-21.3c-3-5-6.7-8.3-11.1-10c-3.1-1.2-8.2-1.8-15.1-1.8h-18.6V432.2z"/>
</svg>
