<svg aria-hidden="true" style="position: absolute; width: 0; height: 0; overflow: hidden;" version="1.1" xmlns="http://www.w3.org/2000/svg" xmlns:xlink="http://www.w3.org/1999/xlink">
    <defs>
        <symbol id="arrow-right" viewBox="0 0 32 32">
            <path d="M9.703 3.125c-0.378-0.007-0.748 0.104-1.061 0.318s-0.551 0.521-0.682 0.877c-0.131 0.357-0.149 0.745-0.052 1.113s0.307 0.695 0.598 0.938l11.136 9.594-11.143 9.594c-0.204 0.149-0.374 0.34-0.501 0.558s-0.207 0.462-0.236 0.714c-0.029 0.252-0.005 0.507 0.069 0.749s0.197 0.466 0.362 0.658c0.165 0.192 0.367 0.348 0.594 0.457s0.475 0.17 0.726 0.178c0.252 0.008 0.503-0.036 0.736-0.13s0.446-0.236 0.623-0.417l12.739-10.957c0.2-0.172 0.361-0.386 0.471-0.627s0.167-0.503 0.167-0.768-0.057-0.527-0.167-0.768c-0.11-0.241-0.271-0.455-0.471-0.627l-12.739-10.992c-0.323-0.289-0.737-0.454-1.169-0.464z" fill="currentColor"></path>
        </symbol>

        <symbol id="check" viewBox="0 0 511.985 511.985">
            <path d="M500.088 83.681c-15.841-15.862-41.564-15.852-57.426 0L184.205 342.148 69.332 227.276c-15.862-15.862-41.574-15.862-57.436 0-15.862 15.862-15.862 41.574 0 57.436l143.585 143.585c7.926 7.926 18.319 11.899 28.713 11.899 10.394 0 20.797-3.963 28.723-11.899l287.171-287.181c15.862-15.851 15.862-41.574 0-57.435z" fill="currentColor"></path>
        </symbol>
        <symbol id="user" viewBox="0 0 512 512">
            <path d="M437.02 330.98c-27.883-27.882-61.071-48.523-97.281-61.018C378.521 243.251 404 198.548 404 148 404 66.393 337.607 0 256 0S108 66.393 108 148c0 50.548 25.479 95.251 64.262 121.962-36.21 12.495-69.398 33.136-97.281 61.018C26.629 379.333 0 443.62 0 512h40c0-119.103 96.897-216 216-216s216 96.897 216 216h40c0-68.38-26.629-132.667-74.98-181.02zM256 256c-59.551 0-108-48.448-108-108S196.449 40 256 40s108 48.448 108 108-48.449 108-108 108z" fill="currentColor"></path>
        </symbol>
        <symbol id="envelope" viewBox="0 0 479.058 479.058">
            <path d="M434.146 59.882H44.912C20.146 59.882 0 80.028 0 104.794v269.47c0 24.766 20.146 44.912 44.912 44.912h389.234c24.766 0 44.912-20.146 44.912-44.912v-269.47c0-24.766-20.146-44.912-44.912-44.912zm0 29.941c2.034 0 3.969.422 5.738 1.159L239.529 264.631 39.173 90.982a14.902 14.902 0 0 1 5.738-1.159zm0 299.411H44.912c-8.26 0-14.971-6.71-14.971-14.971V122.615l199.778 173.141c2.822 2.441 6.316 3.655 9.81 3.655s6.988-1.213 9.81-3.655l199.778-173.141v251.649c-.001 8.26-6.711 14.97-14.971 14.97z" fill="currentColor"></path>
        </symbol>
        <symbol id="phone" viewBox="0 0 513.64 513.64">
            <path d="m499.66 376.96-71.68-71.68c-25.6-25.6-69.12-15.359-79.36 17.92-7.68 23.041-33.28 35.841-56.32 30.72-51.2-12.8-120.32-79.36-133.12-133.12-7.68-23.041 7.68-48.641 30.72-56.32 33.28-10.24 43.52-53.76 17.92-79.36l-71.68-71.68c-20.48-17.92-51.2-17.92-69.12 0L18.38 62.08c-48.64 51.2 5.12 186.88 125.44 307.2s256 176.641 307.2 125.44l48.64-48.64c17.921-20.48 17.921-51.2 0-69.12z" fill="currentColor"></path>
        </symbol>
    </defs>
</svg>
