<svg aria-hidden="true" style="position: absolute; width: 0; height: 0; overflow: hidden;" version="1.1" xmlns="http://www.w3.org/2000/svg" xmlns:xlink="http://www.w3.org/1999/xlink">
    <defs>
        <symbol id="arrow-right" viewBox="0 0 32 32">
            <path d="M9.703 3.125c-0.378-0.007-0.748 0.104-1.061 0.318s-0.551 0.521-0.682 0.877c-0.131 0.357-0.149 0.745-0.052 1.113s0.307 0.695 0.598 0.938l11.136 9.594-11.143 9.594c-0.204 0.149-0.374 0.34-0.501 0.558s-0.207 0.462-0.236 0.714c-0.029 0.252-0.005 0.507 0.069 0.749s0.197 0.466 0.362 0.658c0.165 0.192 0.367 0.348 0.594 0.457s0.475 0.17 0.726 0.178c0.252 0.008 0.503-0.036 0.736-0.13s0.446-0.236 0.623-0.417l12.739-10.957c0.2-0.172 0.361-0.386 0.471-0.627s0.167-0.503 0.167-0.768-0.057-0.527-0.167-0.768c-0.11-0.241-0.271-0.455-0.471-0.627l-12.739-10.992c-0.323-0.289-0.737-0.454-1.169-0.464z" fill="currentColor"/>
        </symbol>

        <symbol id="check" viewBox="0 0 511.985 511.985">
            <path d="M500.088 83.681c-15.841-15.862-41.564-15.852-57.426 0L184.205 342.148 69.332 227.276c-15.862-15.862-41.574-15.862-57.436 0-15.862 15.862-15.862 41.574 0 57.436l143.585 143.585c7.926 7.926 18.319 11.899 28.713 11.899 10.394 0 20.797-3.963 28.723-11.899l287.171-287.181c15.862-15.851 15.862-41.574 0-57.435z" fill="currentColor"/>
        </symbol>
        <symbol id="user" viewBox="0 0 512 512">
            <path d="M437.02 330.98c-27.883-27.882-61.071-48.523-97.281-61.018C378.521 243.251 404 198.548 404 148 404 66.393 337.607 0 256 0S108 66.393 108 148c0 50.548 25.479 95.251 64.262 121.962-36.21 12.495-69.398 33.136-97.281 61.018C26.629 379.333 0 443.62 0 512h40c0-119.103 96.897-216 216-216s216 96.897 216 216h40c0-68.38-26.629-132.667-74.98-181.02zM256 256c-59.551 0-108-48.448-108-108S196.449 40 256 40s108 48.448 108 108-48.449 108-108 108z" fill="currentColor"/>
        </symbol>
        <symbol id="envelope" viewBox="0 0 512 512">
            <path d="M467 76H45C20.238 76 0 96.149 0 121v270c0 24.86 20.251 45 45 45h422c24.762 0 45-20.149 45-45V121c0-24.857-20.248-45-45-45zm-6.91 30L267.624 299.094c-5.864 5.882-17.381 5.886-23.248 0L51.91 106h408.18zM30 385.485v-258.97L159.065 256 30 385.485zM51.91 406l128.334-128.752 42.885 43.025c17.574 17.631 48.175 17.624 65.743 0l42.885-43.024L460.09 406H51.91zM482 385.485 352.935 256 482 126.515v258.97z" fill="currentColor"/>
        </symbol>
        <symbol id="phone" viewBox="0 0 513.64 513.64">
            <path d="m499.66 376.96-71.68-71.68c-25.6-25.6-69.12-15.359-79.36 17.92-7.68 23.041-33.28 35.841-56.32 30.72-51.2-12.8-120.32-79.36-133.12-133.12-7.68-23.041 7.68-48.641 30.72-56.32 33.28-10.24 43.52-53.76 17.92-79.36l-71.68-71.68c-20.48-17.92-51.2-17.92-69.12 0L18.38 62.08c-48.64 51.2 5.12 186.88 125.44 307.2s256 176.641 307.2 125.44l48.64-48.64c17.921-20.48 17.921-51.2 0-69.12z" fill="currentColor"/>
        </symbol>
        <symbol id="phone-o" viewBox="0 0 482.6 482.6">
            <path d="M98.339 320.8c47.6 56.9 104.9 101.7 170.3 133.4 24.9 11.8 58.2 25.8 95.3 28.2 2.3.1 4.5.2 6.8.2 24.9 0 44.9-8.6 61.2-26.3.1-.1.3-.3.4-.5 5.8-7 12.4-13.3 19.3-20 4.7-4.5 9.5-9.2 14.1-14 21.3-22.2 21.3-50.4-.2-71.9l-60.1-60.1c-10.2-10.6-22.4-16.2-35.2-16.2-12.8 0-25.1 5.6-35.6 16.1l-35.8 35.8c-3.3-1.9-6.7-3.6-9.9-5.2-4-2-7.7-3.9-11-6-32.6-20.7-62.2-47.7-90.5-82.4-14.3-18.1-23.9-33.3-30.6-48.8 9.4-8.5 18.2-17.4 26.7-26.1 3-3.1 6.1-6.2 9.2-9.3 10.8-10.8 16.6-23.3 16.6-36s-5.7-25.2-16.6-36l-29.8-29.8c-3.5-3.5-6.8-6.9-10.2-10.4-6.6-6.8-13.5-13.8-20.3-20.1-10.3-10.1-22.4-15.4-35.2-15.4-12.7 0-24.9 5.3-35.6 15.5l-37.4 37.4c-13.6 13.6-21.3 30.1-22.9 49.2-1.9 23.9 2.5 49.3 13.9 80 17.5 47.5 43.9 91.6 83.1 138.7zm-72.6-216.6c1.2-13.3 6.3-24.4 15.9-34l37.2-37.2c5.8-5.6 12.2-8.5 18.4-8.5 6.1 0 12.3 2.9 18 8.7 6.7 6.2 13 12.7 19.8 19.6 3.4 3.5 6.9 7 10.4 10.6l29.8 29.8c6.2 6.2 9.4 12.5 9.4 18.7s-3.2 12.5-9.4 18.7c-3.1 3.1-6.2 6.3-9.3 9.4-9.3 9.4-18 18.3-27.6 26.8l-.5.5c-8.3 8.3-7 16.2-5 22.2.1.3.2.5.3.8 7.7 18.5 18.4 36.1 35.1 57.1 30 37 61.6 65.7 96.4 87.8 4.3 2.8 8.9 5 13.2 7.2 4 2 7.7 3.9 11 6 .4.2.7.4 1.1.6 3.3 1.7 6.5 2.5 9.7 2.5 8 0 13.2-5.1 14.9-6.8l37.4-37.4c5.8-5.8 12.1-8.9 18.3-8.9 7.6 0 13.8 4.7 17.7 8.9l60.3 60.2c12 12 11.9 25-.3 37.7-4.2 4.5-8.6 8.8-13.3 13.3-7 6.8-14.3 13.8-20.9 21.7-11.5 12.4-25.2 18.2-42.9 18.2-1.7 0-3.5-.1-5.2-.2-32.8-2.1-63.3-14.9-86.2-25.8-62.2-30.1-116.8-72.8-162.1-127-37.3-44.9-62.4-86.7-79-131.5-10.3-27.5-14.2-49.6-12.6-69.7z" fill="currentColor"/>
        </symbol>
        <symbol id="locate" viewBox="0 0 24 24">
            <path d="M12 0C7.038 0 3 4.066 3 9.065c0 7.103 8.154 14.437 8.501 14.745a.749.749 0 0 0 .998.001C12.846 23.502 21 16.168 21 9.065 21 4.066 16.962 0 12 0zm0 14c-2.757 0-5-2.243-5-5s2.243-5 5-5 5 2.243 5 5-2.243 5-5 5z" fill="currentColor"/>
        </symbol>
    </defs>
</svg>
